<svg xmlns="http://www.w3.org/2000/svg" version="1.1" xmlns:xlink="http://www.w3.org/1999/xlink" xmlns:svgjs="http://svgjs.dev/svgjs" width="2000" height="573" viewBox="0 0 2000 573"><g transform="matrix(1,0,0,1,0.3398876404492057,0.7471470588236002)"><svg viewBox="0 0 356 102" data-background-color="#293040" preserveAspectRatio="xMidYMid meet" height="573" width="2000" xmlns="http://www.w3.org/2000/svg" xmlns:xlink="http://www.w3.org/1999/xlink"><g id="tight-bounds" transform="matrix(1,0,0,1,-0.06049999999996203,-0.13300000000000978)"><svg viewBox="0 0 356.12052 102.26555168017892" height="102.26555168017892" width="356.12052"><g><svg viewBox="0 0 356.12052 102.26555168017892" height="102.26555168017892" width="356.12052"><g><svg viewBox="0 0 356.12052 102.26555168017892" height="102.26555168017892" width="356.12052"><g><path d="M0 102.266v-102.266h356.121v102.266z" fill="#eb5e28" stroke="transparent" stroke-width="0" rx="0%" data-fill-palette-color="tertiary"></path><path d="M3.283 98.982v-95.699h349.554v95.699z" fill="#293040" stroke="transparent" stroke-width="0" rx="0%" data-fill-palette-color="quaternary"></path><path d="M9.85 92.416v-82.566h336.421v82.566z" fill="#eb5e28" stroke="transparent" stroke-width="0" data-fill-palette-color="tertiary"></path></g><g transform="matrix(1,0,0,1,19.69974,19.69974)" id="textblocktransform"><svg viewBox="0 0 316.72104 62.86607168017892" height="62.86607168017892" width="316.72104" id="textblock"><g><svg viewBox="0 0 316.72104 62.86607168017892" height="62.86607168017892" width="316.72104"><g transform="matrix(1,0,0,1,0,0)"><svg width="316.72104" viewBox="1.8 -35.5 178.83999999999997 35.5" height="62.86607168017892" data-palette-color="#293040"><path d="M35.05-35L35.05 0 27.8 0 27.8-21.7 21.55-8.2 15.25-8.2 9-21.65 9 0 1.8 0 1.8-35 9.5-35 18.45-16.25 27.8-35 35.05-35ZM54.7-21.7L65.6 0 57.4 0 49.65-16.15 47.65-13.9 47.65 0 40.4 0 40.4-35 47.6-35 47.6-22.2 57.2-35 65.8-35 54.7-21.7ZM78.9-13.45L78.9-13.45 76.3-13.45 76.3 0 69.05 0 69.05-35 80.05-35Q86.2-35 88.95-32.38 91.7-29.75 91.7-24.28 91.7-18.8 88.32-16.13 84.95-13.45 78.9-13.45ZM78.34-29.3L78.34-29.3 76.3-29.3 76.3-19.15 77.09-19.15Q80.9-19.15 82.67-20.3 84.45-21.45 84.45-24.18 84.45-26.9 83-28.1 81.55-29.3 78.34-29.3ZM122.99-35L130.44-35 122.14 0 114.79 0 111.69-15.3 107.44 0 100.34 0 92.19-35 99.99-35 104.09-9.25 108.24-25.5 115.04-25.5 118.69-9.25 122.99-35ZM141.14-5.5L154.09-5.5 154.04 0 132.44 0 132.44-5.1Q140.44-13.05 144.09-17.9 147.74-22.75 147.74-26.38 147.74-30 142.44-30L142.44-30Q138.64-30 135.19-29L135.19-29 134.04-28.7 133.09-33.85Q137.09-35.5 142.59-35.5 148.09-35.5 151.06-33.23 154.04-30.95 154.04-26.8 154.04-22.65 150.87-17.65 147.69-12.65 141.14-5.5L141.14-5.5ZM173.69-29.25L157.09-29.25 157.09-35 180.64-35 180.64-29.25 165.64 0 158.99 0 173.69-29.25Z" opacity="1" transform="matrix(1,0,0,1,0,0)" fill="#293040" class="wordmark-text-0" data-fill-palette-color="quaternary" id="text-0"></path></svg></g></svg></g></svg></g></svg></g><g></g></svg></g><defs></defs></svg><rect width="356.12052" height="102.26555168017892" fill="none" stroke="none" visibility="hidden"></rect></g></svg></g></svg>